<?xml version="1.0" encoding="UTF-8"?>
<svg version="1.1" xmlns="http://www.w3.org/2000/svg" width="146" height="130">
<path d="M0 0 C2.80794577 -0.01337622 5.6151712 -0.04132017 8.42285156 -0.08203125 C12.48832272 -0.14093966 16.55302095 -0.15866312 20.61889648 -0.17333984 C21.87009781 -0.19600922 23.12129913 -0.21867859 24.41041565 -0.24203491 C31.68454102 -0.22438948 35.83146703 0.21025046 41.14624023 5.35009766 C42.75548964 7.88452615 43.94439038 10.45059019 45.08374023 13.22509766 C45.74695703 14.73443078 46.41371038 16.24221415 47.08374023 17.74853516 C47.58647461 18.89080566 47.58647461 18.89080566 48.09936523 20.05615234 C49.77793857 23.73429486 51.66583524 27.29230787 53.58374023 30.85009766 C53.92590576 31.49060059 54.26807129 32.13110352 54.62060547 32.79101562 C56.11773426 35.75697038 56.11773426 35.75697038 58.14624023 38.35009766 C59.34578805 34.7514542 59.35728126 31.40476745 59.42749023 27.65478516 C59.44589966 26.90673615 59.46430908 26.15868713 59.48327637 25.38796997 C59.56195092 22.18782815 59.62990236 18.98748095 59.69848633 15.78710938 C59.75007933 13.45122442 59.80736039 11.11552769 59.86499023 8.77978516 C59.87856567 8.05064911 59.89214111 7.32151306 59.90612793 6.57028198 C60.03338375 1.46295415 60.03338375 1.46295415 61.14624023 0.35009766 C64.07941267 0.1422818 66.95983339 0.02540992 69.89624023 -0.02490234 C70.70834961 -0.06228516 71.52045898 -0.09966797 72.35717773 -0.13818359 C76.80310147 -0.20335186 78.56490976 -0.11225586 82.16186523 2.74853516 C85.63364928 7.30012606 85.30054723 11.01868179 85.30737305 16.56982422 C85.31233795 17.526082 85.31730286 18.48233978 85.32241821 19.46757507 C85.33706379 22.64196484 85.34384643 25.81630461 85.34936523 28.99072266 C85.35511547 31.19309491 85.36087322 33.39546714 85.36663818 35.59783936 C85.37715551 40.22147862 85.38299314 44.84510045 85.38647461 49.46875 C85.39195561 55.3915816 85.41597228 61.31418288 85.44444656 67.23694229 C85.46307845 71.78886586 85.46827888 76.34073408 85.46981049 80.89269257 C85.47283716 83.07595832 85.48086616 85.2592231 85.49399567 87.44245148 C85.51106456 90.49940949 85.50917349 93.55580653 85.50268555 96.61279297 C85.51190033 97.51380234 85.52111511 98.41481171 85.53060913 99.34312439 C85.49690851 104.41628661 85.00675884 107.97037449 82.14624023 112.35009766 C79.26208141 113.79217707 76.72902495 113.44404653 73.52124023 113.41259766 C72.33272461 113.40357422 71.14420898 113.39455078 69.91967773 113.38525391 C68.54682617 113.36785156 68.54682617 113.36785156 67.14624023 113.35009766 C48.70092773 76.45947266 48.70092773 76.45947266 47.43041992 73.91821289 C46.57456055 72.20665686 45.7184409 70.49523096 44.86206055 68.78393555 C42.90646202 64.87536901 40.95372497 60.96550429 39.01342773 57.04931641 C35.07581521 49.11313171 31.01323529 41.258584 26.81030273 33.45947266 C25.55233837 31.10891013 24.33851693 28.73465104 23.14624023 26.35009766 C10.60624023 26.02009766 -1.93375977 25.69009766 -14.85375977 25.35009766 C-14.52375977 30.30009766 -14.19375977 35.25009766 -13.85375977 40.35009766 C-11.66235352 40.36427734 -9.47094727 40.37845703 -7.21313477 40.39306641 C-5.0848868 40.42370293 -2.95694951 40.46278677 -0.82885742 40.50268555 C0.64726735 40.52584616 2.12355692 40.5402568 3.59985352 40.5456543 C5.72573286 40.55495949 7.84902792 40.59597225 9.97436523 40.64306641 C11.25214844 40.65877686 12.52993164 40.6744873 13.84643555 40.69067383 C17.14624023 41.35009766 17.14624023 41.35009766 19.44873047 43.63037109 C20.8781422 45.92055471 22.25290755 48.16867198 23.47827148 50.57275391 C23.88070068 51.35239502 24.28312988 52.13203613 24.69775391 52.93530273 C25.32194214 54.16156372 25.32194214 54.16156372 25.95874023 55.41259766 C28.79791062 60.90791753 31.66054584 66.35000975 34.83374023 71.66259766 C37.87934997 76.79055451 40.54631584 82.05025197 43.16967773 87.40478516 C44.660923 90.42020539 46.22253327 93.39220367 47.81030273 96.35791016 C48.26880615 97.21570068 48.72730957 98.07349121 49.19970703 98.95727539 C50.11022356 100.65479685 51.02562347 102.34970954 51.94628906 104.04174805 C52.36160889 104.81768311 52.77692871 105.59361816 53.20483398 106.39306641 C53.57922607 107.08424561 53.95361816 107.7754248 54.33935547 108.48754883 C55.14624023 110.35009766 55.14624023 110.35009766 55.14624023 113.35009766 C51.22982313 113.46628529 47.31384923 113.53734419 43.39624023 113.60009766 C42.28506836 113.63361328 41.17389648 113.66712891 40.02905273 113.70166016 C38.95913086 113.71455078 37.88920898 113.72744141 36.78686523 113.74072266 C35.31008301 113.77214355 35.31008301 113.77214355 33.8034668 113.80419922 C30.34094753 113.21247873 29.31668817 112.06989045 27.14624023 109.35009766 C25.64160156 106.94677734 25.64160156 106.94677734 24.22827148 104.27197266 C23.70015869 103.28277832 23.1720459 102.29358398 22.62792969 101.27441406 C22.07709717 100.22688965 21.52626465 99.17936523 20.95874023 98.10009766 C19.80340946 95.93554427 18.6471558 93.77148323 17.48999023 91.60791016 C16.9240918 90.54604492 16.35819336 89.48417969 15.77514648 88.39013672 C13.54497573 84.22795353 11.26735608 80.09419268 8.95874023 75.97509766 C8.5969165 75.32250977 8.23509277 74.66992188 7.86230469 73.99755859 C6.45271159 71.48873527 5.19205221 69.39590964 3.14624023 67.35009766 C0.23688444 67.20492022 -2.57370577 67.1637897 -5.47875977 67.22509766 C-6.28055664 67.23412109 -7.08235352 67.24314453 -7.90844727 67.25244141 C-9.89034499 67.27603543 -11.87208957 67.31190701 -13.85375977 67.35009766 C-13.86406723 67.91164047 -13.87437469 68.47318329 -13.88499451 69.05174255 C-13.99283662 74.87503231 -14.10745184 80.6981603 -14.22607422 86.52124023 C-14.26949484 88.69698719 -14.31116447 90.8727698 -14.35107422 93.04858398 C-14.40860478 96.16872934 -14.47234799 99.28869398 -14.53735352 102.40869141 C-14.55406601 103.38785019 -14.5707785 104.36700897 -14.58799744 105.37583923 C-14.60794266 106.27669754 -14.62788788 107.17755585 -14.6484375 108.10571289 C-14.66398178 108.90291245 -14.67952606 109.700112 -14.69554138 110.52146912 C-14.85375977 112.35009766 -14.85375977 112.35009766 -15.85375977 113.35009766 C-19.09444856 113.65682081 -22.35034147 113.62851855 -25.60375977 113.66259766 C-26.96500977 113.70610352 -26.96500977 113.70610352 -28.35375977 113.75048828 C-32.49654966 113.7898569 -35.20174378 113.6852074 -38.93188477 111.76806641 C-42.90250324 106.77251186 -41.99060169 99.50176668 -41.95141602 93.35717773 C-41.94995575 92.48475937 -41.94849548 91.612341 -41.94699097 90.71348572 C-41.94320256 88.83052308 -41.93710476 86.94756393 -41.92892456 85.06461525 C-41.9161096 82.08471081 -41.90963264 79.1048511 -41.90478516 76.12492371 C-41.89338614 69.80412819 -41.87413119 63.48336978 -41.85375977 57.16259766 C-41.83015803 49.82620699 -41.8097778 42.48983727 -41.79782104 35.15341759 C-41.7913378 32.21746886 -41.77883278 29.28158473 -41.76611328 26.34565735 C-41.76248129 24.5487168 -41.7591295 22.75177566 -41.75610352 20.95483398 C-41.75093719 20.13864594 -41.74577087 19.32245789 -41.740448 18.48153687 C-41.74011531 14.92954756 -41.89639603 11.76723351 -42.85375977 8.35009766 C-41.92563477 7.75197266 -40.99750977 7.15384766 -40.04125977 6.53759766 C-36.96163108 4.64431282 -36.96163108 4.64431282 -35.47875977 2.66259766 C-27.98567004 -3.38951328 -9.32094619 0.03971034 0 0 Z " fill="#F4F4F4" transform="translate(52.853759765625,9.64990234375)"/>
<path d="M0 0 C2.69744443 2.69744443 2.25076582 4.7992612 2.28216553 8.46485901 C2.27968811 9.3739653 2.27721069 10.28307159 2.2746582 11.21972656 C2.2823246 12.65411324 2.2823246 12.65411324 2.29014587 14.11747742 C2.30409278 17.29192291 2.30308079 20.46615243 2.30078125 23.640625 C2.30466638 25.84299806 2.30900066 28.04537037 2.31376648 30.2477417 C2.32124038 34.87140324 2.32092967 39.49498845 2.31567383 44.11865234 C2.30988831 50.04150493 2.32678249 55.96404389 2.3500185 61.88684464 C2.3647607 66.43877996 2.36562668 70.99063994 2.36250877 75.54259491 C2.36302209 77.72585418 2.36826176 79.90911766 2.37832069 82.09235382 C2.39067214 85.14934027 2.38390002 88.20571842 2.37231445 91.26269531 C2.38378006 92.61420937 2.38378006 92.61420937 2.39547729 93.99302673 C2.35305356 99.06356135 1.85734837 102.62242177 -1 107 C-3.88415883 108.44207941 -6.41721528 108.09394887 -9.625 108.0625 C-10.81351562 108.05347656 -12.00203125 108.04445313 -13.2265625 108.03515625 C-14.59941406 108.01775391 -14.59941406 108.01775391 -16 108 C-16.66 105.69 -17.32 103.38 -18 101 C-17.01 101.33 -16.02 101.66 -15 102 C-15 103.65 -15 105.3 -15 107 C-11.37 107 -7.74 107 -4 107 C-3.67 106.01 -3.34 105.02 -3 104 C-2.34 104 -1.68 104 -1 104 C-0.67 69.68 -0.34 35.36 0 0 Z " fill="#7A7E7D" transform="translate(136,15)"/>
<path d="M0 0 C0.33 33.99 0.66 67.98 1 103 C0.34 102.67 -0.32 102.34 -1 102 C-2.09918801 96.67107909 -2.13224475 91.43079903 -2.09765625 86.00708008 C-2.09619598 85.13466171 -2.09473572 84.26224335 -2.0932312 83.36338806 C-2.08944279 81.48042542 -2.08334499 79.59746628 -2.07516479 77.71451759 C-2.06234984 74.73461315 -2.05587287 71.75475345 -2.05102539 68.77482605 C-2.03962637 62.45403054 -2.02037142 56.13327213 -2 49.8125 C-1.97639827 42.47610933 -1.95601803 35.13973961 -1.94406128 27.80331993 C-1.93757804 24.8673712 -1.92507301 21.93148707 -1.91235352 18.99555969 C-1.90872153 17.19861914 -1.90536973 15.401678 -1.90234375 13.60473633 C-1.89717743 12.78854828 -1.89201111 11.97236023 -1.88668823 11.13143921 C-1.88635554 7.57944991 -2.04263627 4.41713585 -3 1 C-1 0 -1 0 0 0 Z " fill="#6D6E6F" transform="translate(13,17)"/>
<path d="M0 0 C0.82886719 -0.020625 1.65773438 -0.04125 2.51171875 -0.0625 C3.70861328 -0.07023438 3.70861328 -0.07023438 4.9296875 -0.078125 C6.02772705 -0.09214355 6.02772705 -0.09214355 7.14794922 -0.10644531 C9.125 0.25 9.125 0.25 12.125 3.25 C5.525 2.92 -1.075 2.59 -7.875 2.25 C-7.85759766 6.52904297 -7.85759766 6.52904297 -7.83984375 10.89453125 C-7.83204698 13.65470264 -7.82597374 16.41487282 -7.82006836 19.17504883 C-7.81503685 21.09465076 -7.80821102 23.01424886 -7.79956055 24.93383789 C-7.78744331 27.69157864 -7.78175989 30.44926876 -7.77734375 33.20703125 C-7.77218246 34.06649857 -7.76702118 34.92596588 -7.76170349 35.81147766 C-7.76162796 36.61208115 -7.76155243 37.41268463 -7.76147461 38.23754883 C-7.759254 38.9414827 -7.75703339 39.64541656 -7.75474548 40.37068176 C-7.875 42.25 -7.875 42.25 -8.875 45.25 C-9.535 45.25 -10.195 45.25 -10.875 45.25 C-15.30357143 37.96428571 -15.30357143 37.96428571 -15.875 33.25 C-14.555 34.9 -13.235 36.55 -11.875 38.25 C-10.67545218 34.65135655 -10.66395898 31.30466979 -10.59375 27.5546875 C-10.57534058 26.80663849 -10.55693115 26.05858948 -10.53796387 25.28787231 C-10.45928931 22.0877305 -10.39133788 18.8873833 -10.32275391 15.68701172 C-10.27116091 13.35112676 -10.21387984 11.01543003 -10.15625 8.6796875 C-10.14267456 7.95055145 -10.12909912 7.22141541 -10.1151123 6.47018433 C-9.92134393 -1.3065811 -6.93685157 0.04275409 0 0 Z " fill="#BABCBC" transform="translate(122.875,9.75)"/>
<path d="M0 0 C0.33 0 0.66 0 1 0 C1 14.52 1 29.04 1 44 C0.34 44 -0.32 44 -1 44 C-5.42857143 36.71428571 -5.42857143 36.71428571 -6 32 C-4.68 33.65 -3.36 35.3 -2 37 C-0.79838489 33.39515466 -0.76982864 30.02710143 -0.68359375 26.26953125 C-0.66281265 25.51911057 -0.64203156 24.76868988 -0.62062073 23.99552917 C-0.55530074 21.60127816 -0.49632208 19.20691861 -0.4375 16.8125 C-0.39429807 15.18813987 -0.35068324 13.56379067 -0.30664062 11.93945312 C-0.19963737 7.95974629 -0.09832063 3.97993042 0 0 Z " fill="#666868" transform="translate(113,11)"/>
<path d="M0 0 C0.33 0 0.66 0 1 0 C1.11638036 3.24969769 1.18730581 6.4988583 1.25 9.75 C1.28351563 10.67039062 1.31703125 11.59078125 1.3515625 12.5390625 C1.44897481 19.26051207 1.44897481 19.26051207 -0.59375 22.625 C-3.80734198 24.46133827 -6.0718094 24.39712762 -9.75 24.25 C-10.92046875 24.21390625 -12.0909375 24.1778125 -13.296875 24.140625 C-14.18890625 24.09421875 -15.0809375 24.0478125 -16 24 C-16.66 21.69 -17.32 19.38 -18 17 C-17.01 17.33 -16.02 17.66 -15 18 C-15 19.65 -15 21.3 -15 23 C-11.37 23 -7.74 23 -4 23 C-3.67 22.01 -3.34 21.02 -3 20 C-2.34 20 -1.68 20 -1 20 C-0.67 13.4 -0.34 6.8 0 0 Z " fill="#A7AAAB" transform="translate(136,99)"/>
<path d="M0 0 C0 3.96 0 7.92 0 12 C-0.66 11.67 -1.32 11.34 -2 11 C-1.979375 10.0925 -1.95875 9.185 -1.9375 8.25 C-1.9889755 5.57327412 -2.2215017 3.53011948 -3 1 C-1 0 -1 0 0 0 Z " fill="#616262" transform="translate(13,17)"/>
<path d="M0 0 C3 2 3 2 5 5 C5.125 7.6875 5.125 7.6875 5 10 C2.35534962 6.8745041 1.15585285 3.91211733 0 0 Z " fill="#969A99" transform="translate(99,79)"/>
</svg>
